<?xml version="1.0" standalone="no"?>
<!DOCTYPE svg PUBLIC "-//W3C//DTD SVG 20010904//EN"
 "http://www.w3.org/TR/2001/REC-SVG-20010904/DTD/svg10.dtd">
<svg version="1.0" xmlns="http://www.w3.org/2000/svg"
 width="70.000000pt" height="70.000000pt" viewBox="0 0 70.000000 70.000000"
 preserveAspectRatio="xMidYMid meet">
<metadata>
Created by potrace 1.11, written by Peter Selinger 2001-2013
</metadata>
<g transform="translate(0.000000,70.000000) scale(0.100000,-0.100000)"
fill="#000000" stroke="none">
<path d="M414 635 c-13 -13 -26 -35 -30 -49 -4 -18 -16 -28 -42 -36 -21 -6
-44 -14 -52 -17 -8 -4 -35 -14 -60 -23 -43 -15 -46 -20 -71 -88 -15 -40 -24
-72 -22 -72 3 0 0 -7 -7 -15 -7 -8 -9 -15 -6 -15 4 0 2 -9 -5 -21 -6 -12 -26
-67 -46 -122 l-35 -102 26 -21 25 -22 93 34 c51 19 100 36 108 38 37 9 195 67
203 75 9 9 67 161 67 177 0 6 18 17 41 24 41 14 59 34 59 68 0 22 -171 197
-201 205 -14 4 -29 -2 -45 -18z m137 -95 c76 -76 88 -93 80 -109 -6 -10 -23
-22 -37 -25 -24 -6 -36 2 -106 71 -71 70 -79 81 -73 108 5 27 20 44 38 45 4 0
48 -41 98 -90z m-85 -86 c41 -41 74 -79 74 -83 0 -4 -15 -45 -33 -92 l-33 -84
-179 -62 c-99 -34 -184 -63 -190 -63 -5 0 37 47 94 104 92 92 107 104 137 103
37 -1 63 23 64 58 0 28 -11 42 -40 53 -47 17 -94 -27 -77 -72 5 -13 -49 -72
-177 -195 l-36 -35 65 189 c36 104 65 189 65 191 0 1 26 12 58 24 31 12 66 26
77 30 41 17 58 9 131 -66z m-97 -103 c7 -13 6 -24 -3 -37 -12 -15 -18 -16 -40
-6 -19 8 -24 16 -19 29 13 36 47 44 62 14z"/>
</g>
</svg>
